<svg width="185" height="189" viewBox="0 0 185 189" fill="none" xmlns="http://www.w3.org/2000/svg">
<path d="M108.618 90.7175H123.068V173.243C123.068 175.139 122.309 176.998 120.944 178.325C119.578 179.69 117.758 180.449 115.824 180.449C113.928 180.449 112.069 179.69 110.704 178.325C109.339 176.96 108.58 175.139 108.58 173.243V90.7175H108.618Z" fill="#ACAFE0"/>
<path d="M78.3923 20.0245C82.5641 20.0245 86.66 20.859 90.5284 22.4518C94.3589 24.0447 97.886 26.3581 100.806 29.3163C103.764 32.2744 106.078 35.7636 107.671 39.5941C109.264 43.4245 110.098 47.5584 110.098 51.6922V84.6115C110.098 86.2423 109.453 87.7973 108.315 88.935C107.178 90.0728 105.623 90.7175 103.992 90.7175H52.8306C51.1998 90.7175 49.6448 90.0728 48.5071 88.935C47.3693 87.7973 46.7246 86.2423 46.7246 84.6115V51.6922C46.7246 43.3107 50.062 35.2326 56.0163 29.3163C61.9327 23.362 69.9729 20.0245 78.3923 20.0245Z" fill="#49A0EB"/>
<path d="M153.294 20.0245H78.3916C82.5634 20.0245 86.6593 20.859 90.5277 22.4518C94.3582 24.0447 97.8853 26.3581 100.806 29.3163C103.764 32.2744 106.077 35.7636 107.67 39.5941C109.263 43.4245 110.097 47.5584 110.097 51.6922V80.2122V84.6115C110.097 86.2423 109.453 87.7973 108.315 88.935C107.177 90.0728 105.622 90.7175 103.991 90.7175H178.894C179.69 90.7175 180.487 90.5658 181.245 90.2624C182.004 89.959 182.649 89.5039 183.217 88.935C183.786 88.3661 184.241 87.6834 184.545 86.9628C184.848 86.2043 185 85.4079 185 84.6115V51.6922C185 43.3107 181.662 35.2326 175.708 29.3163C169.792 23.362 161.714 20.0245 153.294 20.0245Z" fill="#0D3344"/>
<path d="M78.3917 25.5616C85.4837 25.5616 92.2724 28.3682 97.2785 33.3743C102.285 38.3805 105.091 45.169 105.091 52.2611V79.9846C105.091 80.6672 104.94 81.3499 104.712 81.9567C104.446 82.6014 104.067 83.1703 103.574 83.6254C103.081 84.1185 102.512 84.4977 101.905 84.7252C101.261 84.9907 100.616 85.1045 99.9333 85.1045H56.8122C56.1295 85.1045 55.4469 84.9528 54.8401 84.7252C54.1954 84.4598 53.6264 84.0805 53.1713 83.6254C52.6783 83.1324 52.299 82.5635 52.0336 81.9567C51.7681 81.3119 51.6543 80.6672 51.6543 79.9846V52.2611C51.6543 45.169 54.4608 38.3804 59.467 33.4122C64.4731 28.444 71.2996 25.5616 78.3917 25.5616Z" fill="#0D3344"/>
<path d="M130.577 55.371C134.938 55.371 138.465 51.844 138.465 47.4826C138.465 43.1211 134.938 39.5941 130.577 39.5941C126.216 39.5941 122.688 43.1211 122.688 47.4826C122.688 51.844 126.216 55.371 130.577 55.371Z" fill="#EBDBCD"/>
<path d="M141.954 0H130.577C129.818 0 129.098 0.303385 128.567 0.83434C128.036 1.3653 127.732 2.0859 127.732 2.8444V47.5204C127.732 48.2789 128.036 48.9995 128.567 49.5305C129.098 50.0614 129.818 50.3648 130.577 50.3648C131.335 50.3648 132.056 50.0614 132.587 49.5305C133.118 48.9995 133.421 48.2789 133.421 47.5204V9.93643C133.421 9.7468 133.497 9.5192 133.649 9.40542C133.8 9.25372 133.99 9.17792 134.18 9.17792H141.954C142.713 9.17792 143.434 8.87448 143.965 8.38145C144.495 7.8505 144.799 7.16786 144.799 6.40935V2.88227C144.799 2.12377 144.495 1.40316 143.965 0.87221C143.434 0.303329 142.713 0 141.954 0Z" fill="#FCB58A"/>
<path d="M103.802 85.1425H2.69274C1.21365 85.1425 0 86.356 0 87.8351V87.9869C0 89.4659 1.21365 90.6795 2.69274 90.6795H103.802C105.281 90.6795 106.494 89.4659 106.494 87.9869V87.8351C106.494 86.356 105.319 85.1425 103.802 85.1425Z" fill="#0D3344"/>
<path d="M52.6028 52.337C52.2236 51.9957 51.7306 51.806 51.1996 51.806C50.6687 51.806 50.1757 51.9957 49.7964 52.337L19.2285 77.747C19.494 78.0504 19.8353 78.3159 20.1766 78.5056C20.5559 78.6952 20.9731 78.771 21.3524 78.771H80.8952C81.3124 78.771 81.7295 78.6573 82.0708 78.5056C82.4501 78.3159 82.7535 78.0884 83.019 77.747L52.6028 52.337Z" fill="#D5D5ED"/>
<path d="M82.9047 37.1289L82.7529 36.9772L82.9047 37.1289Z" fill="white"/>
<path d="M49.7958 60.8323C50.213 61.1357 50.706 61.2874 51.1991 61.2874C51.6921 61.2874 52.1851 61.1357 52.6023 60.8323L82.9047 37.091C82.8668 37.053 82.7909 36.9772 82.753 36.9393C82.6013 36.8255 82.4496 36.7497 82.2979 36.6738C82.3737 36.6738 82.4496 36.7497 82.5255 36.7876C82.1083 36.5222 81.6152 36.4084 81.1221 36.4084H21.5035C20.7829 36.4084 20.1003 36.6359 19.5693 37.1289L49.7958 60.8323Z" fill="white"/>
<path d="M44.6384 56.8121L19.4938 37.1289C19.418 37.2048 19.3422 37.2806 19.2663 37.3565C18.8112 37.9254 18.5457 38.6459 18.5837 39.3665V75.737C18.5837 76.4955 18.8491 77.216 19.3422 77.7849L44.6384 56.8121Z" fill="#E8E8F7"/>
<path d="M82.7156 78.1642L82.6396 78.24L82.7156 78.1642Z" fill="#E8E8F7"/>
<path d="M82.6768 78.2021C82.5251 78.3159 82.3734 78.4297 82.2217 78.5056C82.3734 78.4297 82.5251 78.3159 82.6768 78.2021Z" fill="#E8E8F7"/>
<path d="M82.9045 37.1289L57.7979 56.7743L83.17 77.747C83.0562 77.8987 82.9045 78.0125 82.7528 78.1263C83.0941 77.8229 83.3975 77.4436 83.5871 77.0264C83.7767 76.6092 83.8905 76.1542 83.8905 75.6611V39.3286C83.8905 38.9114 83.8147 38.4943 83.6251 38.115C83.4734 37.7357 83.2079 37.3944 82.9045 37.1289Z" fill="#E8E8F7"/>
<path d="M83.1328 37.3565C83.0569 37.2806 82.9811 37.2048 82.9053 37.1289C82.9811 37.2048 83.0569 37.2806 83.1328 37.3565Z" fill="#E8E8F7"/>
<path d="M119.692 159.324C120.83 155.873 122.347 152.536 124.167 149.388C125.836 146.619 127.391 144.458 128.605 142.637C129.818 140.855 130.842 139.338 131.601 138.162C132.397 136.986 133.004 136.152 133.649 136.038C134.293 135.962 135.166 136.607 135.962 138.124C136.948 140.248 137.441 142.599 137.365 144.951C137.29 148.099 136.872 151.208 136.038 154.242C135.317 157.314 134.407 160.5 133.307 163.838C132.246 166.985 131.07 170.095 129.705 173.129C128.453 175.898 127.126 178.591 125.988 180.563L123.219 185.493C122.499 186.745 121.968 187.579 121.475 187.655C120.982 187.731 120.034 187.086 119.199 185.607C118.137 183.597 117.53 181.359 117.341 179.121C117.037 176.087 117.037 173.016 117.341 169.982C117.758 166.379 118.555 162.776 119.692 159.324Z" fill="#4C7378"/>
<path d="M103.309 155.646C101.526 151.55 99.4026 147.302 97.7339 142.941C96.141 138.921 95.1929 134.673 94.9653 130.35C94.7757 127.315 95.3067 124.281 96.4824 121.475C97.3926 119.503 98.4166 118.706 99.0234 118.782C99.6302 118.858 100.161 120.034 100.844 121.74C101.716 123.978 102.702 126.178 103.84 128.301C105.205 130.918 107.026 133.877 109.263 137.29C111.994 141.272 114.383 145.482 116.431 149.843C118.517 154.546 119.882 159.552 120.489 164.71C120.982 168.882 120.944 173.091 120.375 177.225C119.313 184.279 117.038 188.262 116.166 188.186C114.952 188.11 113.587 183.938 111.615 177.908C109.225 170.323 106.457 162.889 103.309 155.646Z" fill="#57848A"/>
<path d="M98.0748 170.626C97.5817 170.209 97.1645 169.754 96.6336 169.375C96.1406 168.957 95.7234 168.54 95.1924 168.199C94.9649 168.009 94.6994 167.82 94.4719 167.63C94.2443 167.44 93.9788 167.289 93.7512 167.137L93.0307 166.606L92.1963 166.075C91.0207 165.355 89.5415 164.558 88.1004 163.496C86.5834 162.472 85.2939 161.183 84.232 159.704C83.4356 158.642 82.8666 157.428 82.5632 156.101C82.2598 154.811 82.2599 153.446 82.4874 152.157C82.9425 150.412 83.8148 149.653 84.4216 149.653C85.0284 149.653 85.7869 150.374 86.773 151.17C87.8349 152.081 89.0864 152.725 90.4517 153.029C91.7791 153.294 93.5616 153.332 96.9749 154.091C97.3921 154.167 97.8472 154.318 98.3023 154.432C98.7574 154.584 99.2125 154.773 99.7435 154.925C100.236 155.115 100.654 155.304 101.185 155.494L102.588 156.215C103.574 156.708 104.484 157.276 105.394 157.921C106.305 158.566 107.139 159.287 107.973 160.045C111.007 162.889 113.321 166.454 114.686 170.437C115.786 173.584 116.165 176.922 115.824 180.259C115.71 181.511 115.445 182.762 115.065 183.976C114.762 184.886 114.345 185.758 113.89 186.593C113.017 187.958 112.259 188.565 111.804 188.527C110.552 188.375 109.376 185.341 107.139 181.814C104.636 177.68 101.602 173.926 98.0748 170.626Z" fill="#689399"/>
</svg>
