<?xml version="1.0" encoding="UTF-8"?>
<svg xmlns="http://www.w3.org/2000/svg" xmlns:xlink="http://www.w3.org/1999/xlink" viewBox="0 0 512 512" width="512px" height="512px">
<defs>
<radialGradient id="radial0" gradientUnits="userSpaceOnUse" cx="86" cy="86" fx="86" fy="86" r="88.692879" gradientTransform="matrix(2.976744,0,0,2.976744,0,0)">
<stop offset="0" style="stop-color:rgb(86.274511%,85.09804%,83.137256%);stop-opacity:1;"/>
<stop offset="0" style="stop-color:rgb(90.980393%,88.627452%,83.137256%);stop-opacity:1;"/>
<stop offset="0.011" style="stop-color:rgb(80.000001%,78.039217%,75.294119%);stop-opacity:1;"/>
<stop offset="0.362" style="stop-color:rgb(42.352942%,41.960785%,40.392157%);stop-opacity:1;"/>
<stop offset="0.699" style="stop-color:rgb(77.254903%,76.862746%,74.901962%);stop-opacity:1;"/>
<stop offset="1" style="stop-color:rgb(96.078432%,94.117647%,92.156863%);stop-opacity:1;"/>
</radialGradient>
<linearGradient id="linear0" gradientUnits="userSpaceOnUse" x1="88.6875" y1="155.875" x2="88.6875" y2="16.125" gradientTransform="matrix(2.976744,0,0,2.976744,0,0)">
<stop offset="0" style="stop-color:rgb(21.960784%,49.803922%,59.607846%);stop-opacity:1;"/>
<stop offset="0.232" style="stop-color:rgb(21.176471%,54.509807%,66.274512%);stop-opacity:1;"/>
<stop offset="0.644" style="stop-color:rgb(30.19608%,76.862746%,91.764706%);stop-opacity:1;"/>
<stop offset="1" style="stop-color:rgb(54.11765%,89.411765%,99.215686%);stop-opacity:1;"/>
</linearGradient>
<linearGradient id="linear1" gradientUnits="userSpaceOnUse" x1="104.487312" y1="54.075191" x2="124.845131" y2="33.717369" gradientTransform="matrix(2.976744,0,0,2.976744,0,0)">
<stop offset="0" style="stop-color:rgb(77.64706%,93.725491%,99.215686%);stop-opacity:1;"/>
<stop offset="0.375" style="stop-color:rgb(71.764708%,92.54902%,99.215686%);stop-opacity:1;"/>
<stop offset="1" style="stop-color:rgb(58.431375%,90.196079%,99.215686%);stop-opacity:1;"/>
</linearGradient>
<linearGradient id="linear2" gradientUnits="userSpaceOnUse" x1="122.28125" y1="64.723061" x2="122.28125" y2="48.598061" gradientTransform="matrix(2.976744,0,0,2.976744,0,0)">
<stop offset="0" style="stop-color:rgb(29.411766%,79.607844%,94.509804%);stop-opacity:1;"/>
<stop offset="0.48" style="stop-color:rgb(23.137255%,76.47059%,92.941177%);stop-opacity:1;"/>
<stop offset="1" style="stop-color:rgb(18.039216%,74.509805%,91.764706%);stop-opacity:1;"/>
</linearGradient>
<linearGradient id="linear3" gradientUnits="userSpaceOnUse" x1="59.125" y1="56.4375" x2="59.125" y2="16.125" gradientTransform="matrix(2.976744,0,0,2.976744,0,0)">
<stop offset="0" style="stop-color:rgb(50.588238%,86.274511%,96.862745%);stop-opacity:1;"/>
<stop offset="0.48" style="stop-color:rgb(54.901963%,88.235295%,97.647059%);stop-opacity:1;"/>
<stop offset="1" style="stop-color:rgb(61.960787%,90.980393%,99.215686%);stop-opacity:1;"/>
</linearGradient>
</defs>
<g id="surface150918867">
<path style=" stroke:none;fill-rule:nonzero;fill:url(#radial0);" d="M 443.632812 365.34375 C 447.632812 372.527344 455.664062 376.039062 463.886719 376 C 477.886719 375.9375 489.113281 387.863281 487.902344 402.097656 C 486.839844 414.703125 475.472656 424 462.816406 424 L 384 424 L 384 432 L 56 432 C 42.320312 432 31.3125 420.550781 32.03125 406.710938 C 32.710938 393.726562 44.359375 384 57.359375 384 L 64 384 C 73.71875 384 81.40625 375.335938 79.785156 365.3125 C 78.503906 357.449219 71.113281 352 63.144531 352 L 24 352 C 10.320312 352 -0.6875 340.550781 0.03125 326.710938 C 0.710938 313.726562 12.359375 304 25.359375 304 L 76 304 C 87.046875 304 96 295.046875 96 284 C 96 272.953125 87.046875 264 76 264 C 64.953125 264 56 255.046875 56 244 C 56 232.953125 64.953125 224 76 224 L 144 224 L 144 168 L 84 168 C 68.039062 168 55.191406 154.640625 56.039062 138.496094 C 56.832031 123.351562 70.425781 112 85.585938 112 L 144 112 L 144 80 L 452 80 C 467.960938 80 480.808594 93.359375 479.960938 109.503906 C 479.167969 124.648438 465.574219 136 450.417969 136 L 428 136 C 412.039062 136 399.191406 149.359375 400.039062 165.503906 C 400.832031 180.648438 414.425781 192 429.585938 192 L 448 192 C 462.214844 192 473.550781 204.367188 471.824219 218.929688 C 470.390625 231 459.457031 239.503906 447.3125 240.007812 C 437.734375 240.40625 430.335938 249.230469 432.320312 259.257812 C 433.824219 266.839844 440.984375 272 448.710938 272 L 484 272 C 499.960938 272 512.808594 285.359375 511.960938 301.503906 C 511.167969 316.648438 497.574219 328 482.417969 328 L 464 328 C 446.464844 328 433.328125 346.800781 443.632812 365.34375 Z M 20 264 C 31.046875 264 40 255.046875 40 244 C 40 232.953125 31.046875 224 20 224 C 8.953125 224 0 232.953125 0 244 C 0 255.046875 8.953125 264 20 264 Z M 20 264 C 31.046875 264 40 255.046875 40 244 C 40 232.953125 31.046875 224 20 224 C 8.953125 224 0 232.953125 0 244 C 0 255.046875 8.953125 264 20 264 Z M 20 264 "/>
<path style=" stroke:none;fill-rule:nonzero;fill:url(#linear0);" d="M 400 464 L 128 464 C 114.742188 464 104 453.257812 104 440 L 104 72 C 104 58.742188 114.742188 48 128 48 L 294.054688 48 C 300.425781 48 306.527344 50.527344 311.023438 55.03125 L 416.96875 160.976562 C 421.472656 165.472656 424 171.574219 424 177.945312 L 424 440 C 424 453.257812 413.257812 464 400 464 Z M 400 464 "/>
<path style=" stroke:none;fill-rule:nonzero;fill:url(#linear1);" d="M 416.96875 160.976562 L 311.023438 55.03125 C 308.984375 52.992188 306.574219 51.417969 304 50.230469 L 304 144 C 304 157.257812 314.742188 168 328 168 L 421.769531 168 C 420.59375 165.425781 419.015625 163.015625 416.96875 160.976562 Z M 416.96875 160.976562 "/>
<path style=" stroke:none;fill-rule:nonzero;fill:url(#linear2);" d="M 328 168 C 314.742188 168 304 157.257812 304 144 L 304 168 C 304 181.257812 314.742188 192 328 192 L 424 192 L 424 177.945312 C 424 174.472656 423.183594 171.105469 421.769531 168 Z M 328 168 "/>
<path style=" stroke:none;fill-rule:nonzero;fill:url(#linear3);" d="M 172 168 L 104 168 L 104 72 C 104 58.742188 114.742188 48 128 48 L 204 48 C 215.046875 48 224 56.953125 224 68 C 224 79.046875 215.046875 88 204 88 L 164 88 C 152.953125 88 144 96.953125 144 108 C 144 119.046875 152.953125 128 164 128 L 172 128 C 183.046875 128 192 136.953125 192 148 C 192 159.046875 183.046875 168 172 168 Z M 232 136 C 223.160156 136 216 143.160156 216 152 C 216 160.839844 223.160156 168 232 168 C 240.839844 168 248 160.839844 248 152 C 248 143.160156 240.839844 136 232 136 Z M 232 136 "/>
<path style=" stroke:none;fill-rule:nonzero;fill:rgb(100%,100%,100%);fill-opacity:1;" d="M 217.664062 265.160156 L 153.496094 355.359375 C 149.726562 360.65625 153.511719 368 160.015625 368 L 288.351562 368 C 294.847656 368 298.640625 360.65625 294.871094 355.359375 L 230.703125 265.160156 C 227.511719 260.679688 220.847656 260.679688 217.664062 265.160156 Z M 217.664062 265.160156 "/>
<path style=" stroke:none;fill-rule:nonzero;fill:rgb(100%,100%,100%);fill-opacity:1;" d="M 312.984375 295.808594 L 265.625 355 C 261.433594 360.238281 265.160156 368 271.871094 368 L 366.59375 368 C 373.304688 368 377.03125 360.238281 372.839844 355 L 325.480469 295.808594 C 322.28125 291.808594 316.191406 291.808594 312.984375 295.808594 Z M 343.855469 232 C 335.019531 232 327.855469 239.164062 327.855469 248 C 327.855469 256.835938 335.019531 264 343.855469 264 C 352.691406 264 359.855469 256.835938 359.855469 248 C 359.855469 239.164062 352.691406 232 343.855469 232 Z M 343.855469 232 "/>
</g>
</svg>
